<?xml version="1.0" encoding="utf-8"?>
<!-- Generator: Adobe Illustrator 26.1.0, SVG Export Plug-In . SVG Version: 6.00 Build 0)  -->
<svg version="1.1" id="Layer_1" xmlns="http://www.w3.org/2000/svg" xmlns:xlink="http://www.w3.org/1999/xlink" x="0px" y="0px"
	 viewBox="0 0 640.3 900" style="enable-background:new 0 0 640.3 900;" xml:space="preserve">
<path id="XMLID_1_" d="M640.3,44.9c0,24.8-20.1,44.9-44.9,44.9c-14.1,0-26.6-6.5-34.9-16.6L355.9,211.4c2.2,4.3,3.4,9.1,3.4,14.2
	c0,17.3-14,31.4-31.4,31.4c-10,0-18.8-4.6-24.6-11.9L118.1,357.9c3,6,4.7,12.8,4.7,19.9c0,6.6-1.4,12.8-4,18.5l154.4,86.5
	c5.7-7.7,14.9-12.8,25.3-12.8c13.7,0,25.4,8.8,29.6,21.1l94.7-20.2c-0.2-1.8-0.4-3.7-0.4-5.5c0-24.8,20.1-44.9,44.9-44.9
	c24.8,0,44.9,20.1,44.9,44.9s-20.1,44.9-44.9,44.9c-20.2,0-37.3-13.4-42.9-31.8l-94.7,20.2c0.1,0.9,0.1,1.8,0.1,2.7
	c0,17.3-14,31.4-31.4,31.4s-31.4-14-31.4-31.4c0-4.2,0.8-8.2,2.3-11.8L115,403.1c-7.1,10.4-18.4,17.6-31.5,19.3l2.6,67.2
	c16.1,1.4,28.7,14.8,28.7,31.2c0,17.3-14,31.4-31.4,31.4c-12.2,0-22.8-7-28-17.2l-7,2.5c0.2,1.2,0.3,2.4,0.3,3.6
	c0,11.3-8.7,20.6-19.7,21.6l-1.7,18.4c9.1,2.5,15.9,10.9,15.9,20.9c0,6-2.5,11.5-6.5,15.4l151.8,223.2c4.3-2.2,9.1-3.4,14.3-3.4
	c1.2,0,2.5,0.1,3.7,0.2l20.2-82.4c-7.5-3.4-12.8-11-12.8-19.8c0-12,9.7-21.7,21.7-21.7c9.3,0,17.3,5.9,20.3,14.2l89-15.4
	c0.1-11.9,9.8-21.5,21.7-21.5c12,0,21.7,9.7,21.7,21.7c0,2.9-0.6,5.6-1.6,8.1l29.5,18.7c4-4.3,9.6-7,15.9-7c12,0,21.7,9.7,21.7,21.7
	c0,3.7-0.9,7.2-2.5,10.2l46.1,36.5c8.2-8.7,19.8-14.1,32.6-14.1c24.8,0,44.9,20.1,44.9,44.9c0,24.8-20.1,44.9-44.9,44.9
	c-24.8,0-44.9-20.1-44.9-44.9c0-9.1,2.7-17.6,7.4-24.7l-46.1-36.5c-3.8,3.4-8.8,5.4-14.3,5.4c-12,0-21.7-9.7-21.7-21.7
	c0-2.9,0.6-5.6,1.6-8.1l-29.5-18.7c-4,4.3-9.6,7-15.9,7c-9.3,0-17.3-5.9-20.3-14.2l-89,15.4c-0.1,11.9-9.8,21.5-21.7,21.5
	c-0.4,0-0.9,0-1.3,0l-20.2,82.4c11.8,4.5,20.2,15.9,20.2,29.3c0,17.3-14,31.4-31.4,31.4s-31.4-14-31.4-31.4
	c0-9.4,4.1-17.8,10.7-23.6L30.4,621.8c-2.7,1.2-5.7,1.9-8.8,1.9C9.7,623.7,0,614,0,602c0-11.3,8.7-20.6,19.7-21.6l1.7-18.4
	c-9.1-2.5-15.9-10.9-15.9-20.9c0-12,9.7-21.7,21.7-21.7c8,0,15,4.3,18.7,10.8l7-2.5c-0.5-2.2-0.8-4.5-0.8-6.9
	c0-15.6,11.4-28.5,26.3-30.9l-2.6-67.2c-23.8-1.1-42.7-20.7-42.7-44.8c0-24.8,20.1-44.9,44.9-44.9c14.8,0,28,7.2,36.2,18.3
	l185.2-112.8c-1.8-3.9-2.8-8.3-2.8-12.9c0-17.3,14-31.4,31.4-31.4c9.4,0,17.9,4.2,23.6,10.7L556.2,66.7c-3.6-6.5-5.7-13.9-5.7-21.8
	c0-24.8,20.1-44.9,44.9-44.9C620.2,0,640.3,20.1,640.3,44.9z"/>
</svg>
